<svg version="1" xmlns="http://www.w3.org/2000/svg" width="1365.333" height="1365.333" viewBox="0 0 1024.000000 1024.000000"><path d="M290 324.5c-25.8 3.8-46.9 10.6-67.5 21.6-5.6 3-17.7 10.4-20 12.1-.5.5-3.2 2.5-6 4.5-10 7.5-28.4 25.2-34 32.8-1.7 2.2-3.6 4.6-4.4 5.4-3.2 3.4-13.1 19.4-18.4 29.9-7.1 13.8-13.6 31.2-16.2 43.7-2.2 9.8-3.6 18.3-4.3 25.5-.9 8.5-.8 41.1.1 42.7.3.4.8 3.5 1.2 6.7 1 9.2 6.8 31.2 11 41.7 6.3 15.9 20.2 40.6 27.2 48.4 1 1.1 3.1 3.7 4.7 5.9 4.3 5.8 19.1 20.3 27.6 27.2 23.2 18.8 51 32.5 78.9 38.9 24.1 5.5 10 5.3 334.9 5.4 192.1 0 300.2-.3 300.2-.9 0-.6-44.1-89.2-98-197l-98.1-196.1-49 98.1c-26.9 53.9-49.2 98-49.4 98-.3 0-10.6-20.1-22.8-44.8-12.3-24.6-23-45.8-23.8-47.2-.7-1.4-1.4-2.7-1.4-3-.3-1.4-50.1-100-50.5-100-.3 0-9.3 17.4-19.9 38.7l-19.3 38.7-4.6-5.5c-11-12.9-28.1-29.1-37.2-35.2-1.4-.9-4.4-3-6.8-4.7-2.3-1.6-4.6-3-4.9-3-.4 0-1.4-.6-2.2-1.4-4.7-4-27.1-14.4-40.4-18.7-9.6-3.1-28.3-7.5-36.2-8.4-9.8-1.3-41.9-1.2-50.5 0z"/></svg>